# xmcd
#
# Track frame offsets: 
#        183
#        12523
#        25063
#        38113
#        48328
#        62370
#        75755
#        87853
#        100618
#        116808
#        128330
#        138895
#        151165
#        165943
#        178003
#        189833
#        201805
#        220730
#
# Disc length: 3102 seconds
#
# Revision: 6
# Processed by: cddbd v1.5.2PL0 Copyright (c) Steve Scherf et al.
# Submitted via: ExactAudioCopy v1.0b3
#
DISCID=cc0c1c12
DTITLE=Ronny - Golden Stars - Nostalgie
DYEAR=1994
DGENRE=Country
TTITLE0=Oh My Darling Caroline
TTITLE1=Marjorie
TTITLE2=Kleine Annabell
TTITLE3=Eine kleine Träne
TTITLE4=Laura, oh Laura
TTITLE5=Good Morning, My Sweet Adalita
TTITLE6=Wenn der Schnee liegt auf den Rosen
TTITLE7=Hohe Tannen
TTITLE8=Wolgalied
TTITLE9=Dunja Du
TTITLE10=Jesse James
TTITLE11=Laß' die Sonne wieder scheinen
TTITLE12=Er war ein armer Zigeuner
TTITLE13=Kein Gold in Blue River
TTITLE14=Little Sweetheart Belinda
TTITLE15=Anja, Anja
TTITLE16=Einmal vergeht der schönste Sommer
TTITLE17=Wenn der Tag zu Ende geht
EXTD=
EXTT0=
EXTT1=
EXTT2=
EXTT3=
EXTT4=
EXTT5=
EXTT6=
EXTT7=
EXTT8=
EXTT9=
EXTT10=
EXTT11=
EXTT12=
EXTT13=
EXTT14=
EXTT15=
EXTT16=
EXTT17=
PLAYORDER=
